<svg width="16" height="16" viewBox="0 0 16 16" fill="none"
     xmlns="http://www.w3.org/2000/svg">
  <!-- LinkedIn “in” glyph -->
  <path d="M13.6 0H2.4C1.08 0 0 1.08 0 2.4v11.2C0 14.92 1.08 16 2.4 16h11.2c1.32 0 2.4-1.08 2.4-2.4V2.4C16 1.08 14.92 0 13.6 0zM4.8 13.6H2.4V6.4h2.4v7.2zM3.6 5.2C2.68 5.2 2 4.52 2 3.6S2.68 2 3.6 2s1.6.68 1.6 1.6-.68 1.6-1.6 1.6zm10 8.4h-2.4V9.6c0-.66-.54-1.2-1.2-1.2S9 8.94 9 9.6v4H6.6V6.4H9V7.36c.4-.62 1.08-1.36 2.4-1.36 1.76 0 3.2 1.16 3.2 3.6v4z"
        fill="#6A7282"/>
</svg>
